<?xml version="1.0" standalone="no"?><!DOCTYPE svg PUBLIC "-//W3C//DTD SVG 1.1//EN" "http://www.w3.org/Graphics/SVG/1.1/DTD/svg11.dtd"><svg t="1611030067678" class="icon" viewBox="0 0 1024 1024" version="1.1" xmlns="http://www.w3.org/2000/svg" p-id="10020" xmlns:xlink="http://www.w3.org/1999/xlink" width="200" height="200"><defs><style type="text/css"></style></defs><path d="M593.92 630.328889s-34.133333-9.102222-43.235556-13.653333c-18.204444-11.377778-29.582222-34.133333-29.582222-56.888889 0-25.031111 20.48-45.511111 34.133334-61.44 34.133333-40.96 52.337778-95.573333 52.337777-157.013334 0-127.431111-91.022222-229.831111-202.524444-229.831111S202.524444 216.177778 202.524444 343.608889c0 61.44 20.48 116.053333 52.337778 157.013333 20.48 11.377778 34.133333 36.408889 34.133334 61.44 0 22.755556-11.377778 43.235556-29.582223 56.888889v2.275556c-2.275556 0-4.551111 2.275556-4.551111 2.275555-11.377778 6.826667-22.755556 11.377778-36.408889 11.377778-86.471111 29.582222-159.288889 75.093333-202.524444 131.982222h2.275555c-11.377778 15.928889-15.928889 34.133333-15.928888 52.337778 0 54.613333 45.511111 100.124444 102.4 100.124444H705.422222c59.164444 0 104.675556-43.235556 104.675556-100.124444 0-22.755556-9.102222-43.235556-20.48-61.44-43.235556-56.888889-111.502222-100.124444-195.697778-127.431111zM1001.244444 730.453333c-38.684444-47.786667-97.848889-88.746667-172.942222-111.502222 0 0-29.582222-6.826667-38.684444-11.377778-15.928889-11.377778-25.031111-29.582222-25.031111-50.062222 0-22.755556 18.204444-40.96 29.582222-52.337778 29.582222-36.408889 47.786667-84.195556 47.786667-138.808889 0-111.502222-79.644444-204.8-179.768889-204.8-15.928889 0-31.857778 2.275556-45.511111 6.826667 34.133333 50.062222 52.337778 109.226667 52.337777 175.217778 0 70.542222-25.031111 138.808889-68.266666 195.697778l-4.551111 4.551111v2.275555c-4.551111 4.551111-11.377778 11.377778-13.653334 18.204445 0 2.275556 0 2.275556 2.275556 2.275555 4.551111 2.275556 11.377778 4.551111 18.204444 4.551111h2.275556l9.102222 4.551112c93.297778 29.582222 172.942222 81.92 225.28 147.911111 22.755556 29.582222 36.408889 63.715556 36.408889 100.124444 0 20.48-4.551111 36.408889-11.377778 54.613333h65.991111c52.337778 0 93.297778-38.684444 93.297778-88.746666-2.275556-25.031111-9.102222-43.235556-22.755556-59.164445z m0 0"  p-id="10021"></path></svg>