<?xml version="1.0" standalone="no"?><!DOCTYPE svg PUBLIC "-//W3C//DTD SVG 1.1//EN" "http://www.w3.org/Graphics/SVG/1.1/DTD/svg11.dtd"><svg class="icon" width="200px" height="200.00px" viewBox="0 0 1024 1024" version="1.1" xmlns="http://www.w3.org/2000/svg"><path  d="M510.99735 1.024zM998.93335 445.44l-371.2-394.24c-2.56-1.536-5.12-3.584-6.144-6.656C591.89335 16.384 552.46935 1.024 511.50935 1.024v20.992V1.024C467.47735 1.024 425.49335 18.944 395.28535 51.2L24.08535 445.44C8.21335 460.8 0.02135 482.304 0.02135 504.32c-0.512 22.528 8.192 44.544 24.576 60.416 16.384 16.384 38.4 25.6 61.44 25.6h20.48v322.56c0 60.416 49.152 110.08 110.08 110.08h194.56c9.728 0 19.456-4.096 26.112-10.752 6.656-7.168 10.752-16.384 10.24-26.112v-316.416h113.152v316.416c-0.512 9.728 3.584 18.944 10.24 26.112 6.656 6.656 16.384 10.752 26.112 10.752h197.632c60.416 0 110.08-49.664 110.08-110.08v-322.56h31.744c22.528 0.512 44.544-8.192 60.416-24.064 34.304-32.768 34.816-87.04 2.048-120.832z" /></svg>