<?xml version="1.0" standalone="no"?><!DOCTYPE svg PUBLIC "-//W3C//DTD SVG 1.1//EN" "http://www.w3.org/Graphics/SVG/1.1/DTD/svg11.dtd"><svg t="1611029957726" class="icon" viewBox="0 0 1024 1024" version="1.1" xmlns="http://www.w3.org/2000/svg" p-id="9186" xmlns:xlink="http://www.w3.org/1999/xlink" width="200" height="200"><defs><style type="text/css"></style></defs><path d="M766.112 289.888s103.328-1.024 103.328 101.28c0 0 9.568 99.04-103.328 101.216 0 0-101.152 2.176-100.128-101.216 0.032-0.064-1.088-91.744 100.128-101.28z m203.552-155.616S1024.032 138.528 1024.032 186.464v714.912s-3.232 51.136-54.368 52.256v-819.36zM0 901.44s2.176 52.256 52.256 52.256h917.408V802.4h-100l-203.68-206.752-153.44 154.432L303.712 492.32 98.08 800.288l-45.76 1.024-1.152-614.752H0.032l-0.032 714.88z m969.664-767.168H52.256S0 133.184 0 186.464h969.664v-52.192z"  p-id="9187"></path></svg>