<?xml version="1.0" standalone="no"?><!DOCTYPE svg PUBLIC "-//W3C//DTD SVG 1.1//EN" "http://www.w3.org/Graphics/SVG/1.1/DTD/svg11.dtd"><svg class="icon" width="200px" height="200.00px" viewBox="0 0 1024 1024" version="1.1" xmlns="http://www.w3.org/2000/svg"><path  d="M415.36 654.08A42.88 42.88 0 0 1 384 640L239.36 486.4a41.6 41.6 0 0 1 0-58.88 42.24 42.24 0 0 1 58.88 0L416 552.32l308.48-308.48a42.88 42.88 0 0 1 59.52 0 42.24 42.24 0 0 1 0 58.88L448 640a42.24 42.24 0 0 1-32.64 14.08z"  /><path  d="M903.68 848.64H120.32a64 64 0 0 1-64-64V101.12a64 64 0 0 1 64-64h783.36a64 64 0 0 1 64 64v684.16a64 64 0 0 1-64 63.36zM120.32 101.12v684.16h783.36V101.12z m0-32v32zM815.36 986.88H209.28a32 32 0 0 1-32-32 32 32 0 0 1 32-32h606.08a32 32 0 0 1 32 32 32.64 32.64 0 0 1-32 32z"  /></svg>