<?xml version="1.0" standalone="no"?><!DOCTYPE svg PUBLIC "-//W3C//DTD SVG 1.1//EN" "http://www.w3.org/Graphics/SVG/1.1/DTD/svg11.dtd"><svg class="icon" width="200px" height="200.00px" viewBox="0 0 1024 1024" version="1.1" xmlns="http://www.w3.org/2000/svg"><path  d="M713.222931 862.108866 713.222931 830.927703l0 0 0 0c42.87346 0 81.85017-19.487843 109.133559-46.771233 23.385617-27.28339 42.874483-62.362326 42.874483-105.235786l0 0 0 0 0 0 0 0c0-38.97671-19.487843-74.054623-42.874483-101.338013l0 0 0 0c-27.28339-27.28339-66.2601-42.87346-109.133559-42.87346l0 0 0 0 0-35.078936 0 0 0 0c50.669006 0 97.441263 19.487843 132.519176 54.56678l0 0c31.181163 31.181163 50.669006 74.054623 50.669006 124.724653l0 0 0 0 0 0 0 0c0 50.669006-19.487843 97.441263-50.669006 128.621403C810.664194 842.621023 763.891937 862.108866 713.222931 862.108866L713.222931 862.108866 713.222931 862.108866 713.222931 862.108866zM713.222931 776.360923c7.795547 3.897773 11.69332 3.897773 19.487843 3.897773 23.385617 0 38.97671-3.897773 54.56678-11.69332l0-23.385617c-15.59007 7.795547-31.181163 11.69332-50.669006 11.69332-7.795547 0-15.59007 0-23.385617-3.897773L713.222931 776.360923 713.222931 776.360923zM713.222931 612.660584c7.795547-3.897773 19.487843-7.795547 27.28339-7.795547 15.59007 0 31.181163 3.897773 46.771233 11.69332L787.277554 593.172741c-11.69332-7.795547-27.28339-7.795547-46.771233-7.795547-7.795547 0-19.487843 0-27.28339 0L713.222931 612.660584zM615.782691 183.92087c7.795547 7.795547 19.487843 15.59007 27.28339 23.385617l0 0c35.078936 35.078936 54.56678 77.952396 54.56678 128.621403l0 0 0 0 0 0 0 0c0 50.669006-19.487843 97.441263-54.56678 132.519176-7.795547 7.795547-19.487843 15.59007-27.28339 23.385617l0-42.87346 3.897773-3.897773c27.28339-27.28339 42.874483-66.2601 42.874483-109.133559l0 0 0 0 0 0 0 0c0-38.97671-15.59007-77.952396-42.874483-105.235786l0 0 0 0-3.897773-3.897773L615.782691 183.92087 615.782691 183.92087zM713.222931 499.629251l0 35.078936 0 0 0 0 0 0c-38.97671 0-74.054623 11.69332-97.441263 38.97671l0-42.87346C643.066081 511.322571 678.143994 499.629251 713.222931 499.629251L713.222931 499.629251 713.222931 499.629251 713.222931 499.629251 713.222931 499.629251zM713.222931 585.377194l0 27.28339c-7.795547 0-15.59007 7.795547-23.385617 11.69332-15.59007 15.59007-19.487843 31.181163-19.487843 58.464553 0 23.385617 3.897773 38.97671 15.59007 54.56678 7.795547 7.795547 19.487843 11.69332 27.28339 15.59007l0 23.385617c-19.487843-3.897773-35.078936-11.69332-46.771233-23.385617-15.59007-19.487843-23.385617-42.87346-23.385617-70.157873 0-31.181163 7.795547-54.56678 27.28339-70.157873C682.041768 600.968288 697.632861 593.172741 713.222931 585.377194L713.222931 585.377194zM713.222931 830.927703l0 31.181163 0 0 0 0 0 0c-35.078936 0-70.157873-11.69332-97.441263-31.181163l0-38.97671C639.168308 815.337633 674.247244 830.927703 713.222931 830.927703L713.222931 830.927703 713.222931 830.927703 713.222931 830.927703zM514.443655 152.739706 514.443655 152.739706 514.443655 152.739706c35.078936 0 70.157873 11.69332 101.338013 31.181163l0 42.87346c-27.28339-23.385617-62.362326-38.97671-101.338013-38.97671l0 0 0 0L514.443655 152.739706 514.443655 152.739706zM615.782691 491.833705c-31.181163 19.487843-66.2601 27.28339-101.338013 27.28339l0 0 0 0 0-31.181163 0 0 0 0c38.97671 0 74.054623-15.59007 101.338013-38.97671L615.782691 491.833705 615.782691 491.833705zM615.782691 530.810415l0 42.87346c-3.897773 0-3.897773 0-7.795547 3.897773l0 0c-27.28339 27.28339-42.87346 62.362326-42.87346 101.338013l0 0 0 0 0 0 0 0c0 42.87346 15.59007 77.952396 42.87346 105.235786l0 0 0 0c3.897773 3.897773 3.897773 3.897773 7.795547 7.795547l0 38.97671c-11.69332-3.897773-23.385617-11.69332-31.181163-23.385617l0 0c-31.181163-31.181163-54.56678-77.952396-54.56678-128.621403l0 0 0 0 0 0 0 0c0-50.669006 23.385617-93.54349 54.56678-124.724653l0 0C596.293825 542.503734 604.089371 538.605961 615.782691 530.810415L615.782691 530.810415zM514.443655 382.700145l0-23.385617 31.181163 0-27.28339-81.85017c-3.897773 0-3.897773-3.897773-3.897773-11.69332l0-23.385617L526.136975 242.385423l74.054623 190.983729-27.28339 0-19.487843-50.669006L514.443655 382.700145zM514.443655 152.739706 514.443655 152.739706l0 35.078936 0 0 0 0 0 0c-38.97671 0-74.054623 15.59007-101.338013 38.97671l0-42.87346C444.286806 164.433026 475.467969 152.739706 514.443655 152.739706L514.443655 152.739706 514.443655 152.739706 514.443655 152.739706zM514.443655 519.117095 514.443655 519.117095 514.443655 519.117095 514.443655 519.117095c-38.97671 0-70.157873-7.795547-101.338013-27.28339l0-42.87346c27.28339 23.385617 62.362326 38.97671 101.338013 38.97671l0 0 0 0 0 0L514.443655 519.117095 514.443655 519.117095zM514.443655 242.385423l0 23.385617 0 0 0 0c-3.897773 3.897773-3.897773 11.69332-3.897773 11.69332l-27.28339 81.85017 31.181163 0 0 23.385617-38.97671 0-19.487843 50.669006-27.28339 0 74.054623-190.983729L514.443655 242.385423 514.443655 242.385423zM413.105642 834.825476l0-42.874483c3.897773-3.897773 3.897773-3.897773 7.795547-7.795547 27.28339-27.28339 42.87346-62.362326 42.87346-105.235786l0 0 0 0 0 0 0 0c0-38.97671-15.59007-74.054623-42.87346-101.338013l0 0 0 0c-3.897773-3.897773-3.897773-3.897773-7.795547-3.897773l0-42.87346c11.69332 7.795547 19.487843 15.59007 31.181163 23.385617l0 0c31.181163 31.181163 50.669006 74.054623 50.669006 124.724653l3.897773 0 0 0 0 0-3.897773 0c0 50.669006-19.487843 97.441263-50.669006 128.621403C432.593486 819.235406 424.797939 827.030953 413.105642 834.825476zM413.105642 491.833705c-11.69332-7.795547-19.487843-15.59007-27.28339-23.385617l0 0c-35.078936-35.078936-54.56678-81.85017-54.56678-132.519176l0 0 0 0 0 0 0 0c0-50.669006 19.487843-93.54349 54.56678-128.621403l0 0c7.795547-7.795547 19.487843-15.59007 27.28339-23.385617l0 42.87346-3.897773 3.897773 0 0c-27.28339 27.28339-46.771233 66.2601-46.771233 105.235786l0 0 0 0 0 0 0 0c0 42.87346 19.487843 81.85017 46.771233 109.133559l0 0 0 0 3.897773 3.897773L413.105642 491.833705 413.105642 491.833705zM413.105642 530.810415l0 42.87346c-27.28339-27.28339-62.362326-38.97671-97.441263-38.97671l0 0 0 0 0-35.078936 0 0 0 0C350.743316 499.629251 385.822253 511.322571 413.105642 530.810415L413.105642 530.810415zM413.105642 791.952017l0 42.874483c-27.28339 15.59007-62.362326 27.28339-97.441263 27.28339l0 0 0 0L315.66438 830.927703l0 0 0 0C350.743316 830.927703 385.822253 815.337633 413.105642 791.952017L413.105642 791.952017zM315.66438 776.360923l0-23.385617c7.795547 0 15.59007-3.897773 23.385617-7.795547 3.897773-7.795547 7.795547-15.59007 7.795547-23.385617 0-19.487843-11.69332-31.181163-31.181163-35.078936l0-23.385617c3.897773 0 7.795547-3.897773 11.69332-7.795547 7.795547-3.897773 11.69332-11.69332 11.69332-23.385617s-7.795547-19.487843-23.385617-23.385617l0-19.487843c11.69332 0 23.385617 3.897773 35.078936 11.69332 7.795547 7.795547 15.59007 15.59007 15.59007 27.28339 0 11.69332-3.897773 19.487843-11.69332 27.28339-3.897773 7.795547-11.69332 15.59007-23.385617 15.59007l0 3.897773c11.69332 0 23.385617 3.897773 31.181163 11.69332 7.795547 11.69332 11.69332 19.487843 11.69332 35.078936s-3.897773 27.28339-15.59007 38.97671C346.845543 768.5664 331.255473 776.360923 315.66438 776.360923zM315.66438 499.629251l0 35.078936 0 0-3.897773 0 0 0c-38.97671 0-77.952396 15.59007-105.235786 42.87346l0 0c-27.28339 27.28339-42.87346 62.362326-42.87346 101.338013l0 0 0 0 0 0 0 0c0 42.87346 15.59007 77.952396 42.87346 105.235786l0 0 0 0c27.28339 27.28339 66.2601 46.771233 105.235786 46.771233l0 0 3.897773 0 0 0 0 31.181163 0 0-3.897773 0 0 0c-46.771233 0-93.54349-19.487843-128.621403-54.56678l0 0c-31.181163-31.181163-50.669006-77.952396-50.669006-128.621403l-3.897773 0 0 0 0 0 3.897773 0c0-50.669006 19.487843-93.54349 50.669006-124.724653l3.897773 0c31.181163-35.078936 77.952396-54.56678 124.724653-54.56678l0 0L315.66438 499.628228 315.66438 499.629251 315.66438 499.629251zM315.66438 589.274968c-3.897773 0-3.897773-3.897773-7.795547-3.897773l-54.56678 0 0 190.983729 58.464553 0 3.897773 0 0-23.385617c-3.897773 0-7.795547 0-7.795547 0l-31.181163 0 0-66.2601 27.28339 0c3.897773 0 7.795547 0 11.69332 0l0-23.385617c-7.795547 0-11.69332 3.897773-15.59007 3.897773l-23.385617 0 0-58.464553 27.28339 0c3.897773 0 7.795547 0 11.69332 0L315.665403 589.274968z" /></svg>